<?xml version="1.0" encoding="utf-8"?>
<!-- Generator: Adobe Illustrator 25.2.3, SVG Export Plug-In . SVG Version: 6.00 Build 0)  -->
<svg version="1.1" id="Layer_1" xmlns="http://www.w3.org/2000/svg" xmlns:xlink="http://www.w3.org/1999/xlink" x="0px" y="0px"
	 viewBox="0 0 841.9 189.6" style="enable-background:new 0 0 841.9 189.6;" xml:space="preserve">
<style type="text/css">
	.st0{fill:#F6F3EB;}
</style>
<path class="st0" d="M809.4,148.9v-18.7c0-3.4-3.2-6.6-6.8-6.6h-28.1v-16.4h20.6c3.5,0,6.8-3.1,6.8-6.6V81.9c0-3.4-3.2-6.6-6.8-6.6
	h-20.6V61.9h26.4c3.6,0,6.8-3.1,6.8-6.6V37.6c0-3.4-3.2-6.6-6.8-6.6h-54.8c-3.6,0-6.8,3.1-6.8,6.6v111.3c0,3.4,3.2,6.6,6.8,6.6h56.5
	C806.1,155.4,809.4,152.3,809.4,148.9"/>
<path class="st0" d="M732.3,148.9v-18.7c0-3.4-3.2-6.6-6.8-6.6h-29.8v-86c0-3.4-3.2-6.6-6.8-6.6h-21.6c-3.6,0-6.8,3.1-6.8,6.6v111.3
	c0,3.4,3.2,6.6,6.8,6.6h58.2C729,155.4,732.3,152.3,732.3,148.9"/>
<path class="st0" d="M489.6,55.3V37.6c0-3.4-3.2-6.6-6.8-6.6h-65.6c-3.6,0-6.8,3.1-6.8,6.6v17.7c0,3.4,3.2,6.6,6.8,6.6h15.2v87
	c0,3.4,3.2,6.6,6.8,6.6h21.6c3.6,0,6.8-3.1,6.8-6.6v-87h15.2C486.4,61.9,489.6,58.7,489.6,55.3"/>
<path class="st0" d="M405.3,120.6c0-33.8-45.7-47.6-45.7-58.4c0-3,1.9-4.6,4.9-4.6c10,0,2.9,16.4,13.5,16.4h19.1
	c3.6,0,6.8-3.1,6.8-6.6v-1.8c0-22.2-16.9-36.6-39.2-36.6c-21,0-38.2,12.8-38.2,34.1c0,32.8,45.7,47,45.7,59.4c0,4.1-2.2,6.2-6.4,6.2
	c-5.7,0-7.8-5.9-7.8-10.5c0-4.4-1.4-8.7-6.8-8.7h-19.6c-3.7,0-6.8,3.1-6.8,6.7c0,3.9,0.5,7.9,1.2,11.7c4.1,20.2,16.9,29.4,37.7,29.4
	C388.7,157.4,405.3,146.4,405.3,120.6"/>
<path class="st0" d="M277,148.9v-18.7c0-3.4-3.2-6.6-6.8-6.6h-28.1v-16.4h20.6c3.6,0,6.8-3.1,6.8-6.6V81.9c0-3.4-3.2-6.6-6.8-6.6
	h-20.6V61.9h26.4c3.6,0,6.8-3.1,6.8-6.6V37.6c0-3.4-3.2-6.6-6.8-6.6h-54.8c-3.6,0-6.8,3.1-6.8,6.6v111.3c0,3.4,3.2,6.6,6.8,6.6h56.5
	C273.7,155.4,277,152.3,277,148.9"/>
<path class="st0" d="M196,148.9V37.6c0-3.4-3.2-6.6-6.8-6.6h-21.6c-3.6,0-6.8,3.1-6.8,6.6v35.8h-6.8V37.6c0-3.4-3.2-6.6-6.8-6.6
	h-21.6c-3.5,0-6.8,3.1-6.8,6.6v111.3c0,3.4,3.2,6.6,6.8,6.6h21.6c3.6,0,6.8-3.1,6.8-6.6v-38.4h6.8v38.4c0,3.4,3.2,6.6,6.8,6.6h21.6
	C192.8,155.4,196,152.3,196,148.9"/>
<path class="st0" d="M112.6,55.3V37.6c0-3.4-3.2-6.6-6.8-6.6H40.2c-3.6,0-6.8,3.1-6.8,6.6v17.7c0,3.4,3.2,6.6,6.8,6.6h15.2v87
	c0,3.4,3.2,6.6,6.8,6.6h21.6c3.6,0,6.8-3.1,6.8-6.6v-87h15.2C109.4,61.9,112.6,58.7,112.6,55.3"/>
<path class="st0" d="M519.9,112.7l5.1-34.8l5.1,34.8H519.9z M546,36.4c-0.5-2.6-3.9-5.4-6.8-5.4h-28.4c-2.9,0-6.3,2.8-6.8,5.4
	l-19.8,111.3v1.3c0,3.8,2.9,6.4,6.8,6.4h20.1c7.4,0,7.3-9.7,8.1-14.8h11.5c0.8,5.1,0.7,14.8,8.1,14.8H559c3.9,0,6.8-2.6,6.8-6.4
	v-1.3L546,36.4z"/>
<path class="st0" d="M618.1,117.7c0,3.8,0,10.8-8.1,10.8h-4.4v-24.9h4c7.4,0,8.4,4.8,8.4,9.5V117.7z M605.7,57.3h3.2
	c2.2,0,3.9,0.6,5.2,1.8c2.4,2.3,2.4,6.2,2.4,9.3v0.3c0,4,0,11.5-9.1,11.5h-1.7V57.3z M639.1,89.4c7.9-6.2,9.8-16.4,9.8-25.9
	c0-24-14-32.5-37.2-32.5H580c-3.5,0-6.8,3.1-6.8,6.6v111.3c0,3.4,3.2,6.6,6.8,6.6h35.9c24.9,0,36.5-13,36.5-36.6
	C652.3,108,649,95.7,639.1,89.4"/>
</svg>
